<svg xmlns="http://www.w3.org/2000/svg" width="512" height="512"><path d="M403.5 121.812c-1.65 1.542-5.368 4.09-8.263 5.662-2.895 1.572-7.898 5.243-11.119 8.157-3.22 2.914-6.177 4.977-6.57 4.584-.393-.393-.565-.255-.381.307.668 2.049-175.865 179.75-177.594 178.768-.59-.336-.738-.241-.329.21 1.214 1.34-2.607 3.357-7.659 4.043-4.066.551-5.241.275-8.535-2.008-2.1-1.456-4.926-3.859-6.278-5.341-1.353-1.482-3.542-3.631-4.866-4.777-1.323-1.146-4.078-3.922-6.121-6.169-2.044-2.247-4.519-4.691-5.5-5.431-.982-.74-4.373-4.118-7.535-7.507-3.162-3.389-5.75-5.99-5.75-5.781 0 .431-2.047-1.626-10.25-10.3-3.162-3.344-5.75-5.867-5.75-5.607 0 .261-1.684-1.162-3.743-3.161s-4.984-4.368-6.5-5.264c-1.516-.895-2.757-2.008-2.757-2.472 0-.463-.45-.565-1-.225-.55.34-1 .115-1-.5s-.412-.864-.915-.553c-.503.311-1.073.225-1.267-.191-.193-.416-2.235-2.514-4.537-4.662l-4.186-3.907-5.719 5.72c-5.998 5.997-10.582 9.001-11.91 7.803-.432-.39-.5-.208-.15.406.771 1.352-2.666 4.701-3.73 3.636-.414-.414-.603-.077-.419.748.183.825-.229 1.387-.917 1.25-.687-.138-1.197.087-1.132.5.312 1.975-.246 2.599-1.118 1.25-.773-1.196-.972-1.011-.985.917-.008 1.329-.322 2.109-.698 1.734-.788-.789-5.294 8.067-5.308 10.432-.005.871-.334 1.909-.732 2.307-1.011 1.01-1.094 7.61-.095 7.61.45 0 .818.693.818 1.54 0 2.171 3.422 8.619 6.541 12.326 1.45 1.724 2.484 3.127 2.298 3.118-.186-.009 12.821 13.312 28.906 29.603 16.085 16.291 28.989 30.034 28.676 30.541-.313.507-.011.798.673.647.683-.151 1.835.85 2.56 2.225.724 1.375 1.323 2.064 1.331 1.531.008-.532 2.694 1.682 5.968 4.922 3.274 3.24 5.715 6.275 5.425 6.744-.289.469.069.729.798.578.733-.152 1.175.395.991 1.225-.184.825-.01 1.176.385.781.396-.396 3.641 2.079 7.212 5.5l7.653 7.328c2.522 2.414 11.408 5.645 17.333 6.302 3.438.381 6.25.332 6.25-.109s.563-.801 1.25-.799c1.82.004 9.677-4.175 12.226-6.503 1.205-1.1 9.612-9.316 18.682-18.259 9.07-8.942 16.795-15.955 17.167-15.583.371.371.675.118.675-.563 0-1.729 2.598-4.148 3.541-3.297.429.386.506.22.171-.37-.728-1.279 2.793-4.556 3.864-3.596.409.367.458.166.108-.448-.787-1.38 2.663-4.675 3.807-3.636.457.414.543.25.193-.364-.697-1.222 2.566-4.698 3.647-3.886.368.276.443.201.167-.167-.787-1.048 2.648-4.359 3.79-3.653.562.347.737.172.39-.39-.801-1.297 2.702-4.549 3.813-3.54.457.414.543.25.193-.364-.787-1.38 2.663-4.675 3.807-3.636.457.414.543.25.193-.364-.787-1.38 2.663-4.675 3.807-3.636.457.414.558.274.226-.311-.786-1.384 58.602-60.761 59.738-59.726.476.434.579.287.229-.327-.787-1.38 2.663-4.675 3.807-3.636.457.414.543.25.193-.364-.697-1.222 2.566-4.698 3.647-3.886.368.276.443.201.167-.167-.787-1.048 2.648-4.359 3.79-3.653.562.347.737.172.39-.39-.801-1.297 2.702-4.549 3.813-3.54.457.414.543.25.193-.364-.787-1.38 2.663-4.675 3.807-3.636.457.414.556.27.221-.32-.728-1.279 2.793-4.556 3.864-3.596.409.367.471.186.136-.404-.675-1.186 2.773-4.61 3.703-3.679.322.321.585-.008.585-.733 0-1.975 38.149-40.033 39.41-39.316.6.342.752.248.338-.209-1.009-1.111 2.243-4.614 3.54-3.813.562.347.737.172.39-.39-.801-1.297 2.702-4.549 3.813-3.54.457.414.556.27.221-.32-.675-1.186 2.773-4.61 3.703-3.679.322.321.585-.166.585-1.082 0-.917.511-1.667 1.135-1.667 1.177 0 2.599-1.394 11.726-11.5 6.993-7.742 11.144-16.331 11.116-23-.022-5.154-3.068-13.5-4.928-13.5-.577 0-1.049-.927-1.049-2.059 0-1.132-.45-1.781-1-1.441-.55.34-1.031.029-1.068-.691-.038-.72-2.754-3.559-6.036-6.309-3.282-2.75-6.626-5.595-7.432-6.321-.805-.727-1.464-1.053-1.464-.725 0 1.192-5.572-2.351-8.437-5.365-1.615-1.699-3.19-3.087-3.5-3.084-.31.002-1.913 1.266-3.563 2.807" fill="undefined" fill-rule="evenodd"/></svg>